<svg version="1.2" xmlns="http://www.w3.org/2000/svg" viewBox="0 0 102 87" width="102" height="87">
	<title>noun-cold-email-4245355-svg</title>
	<style>
		tspan { white-space:pre } 
		.s0 { fill: #000000 } 
		.t1 { font-size: 5px;fill: #000000;font-family: "' Helvetica  Neue'" } 
	</style>
	<path id="Layer" fill-rule="evenodd" class="s0" d="m77 46.7c3.6 4.4 4.9 10.3 3.5 15.8-1.4 5.4-5.3 10-10.6 12.2-5.2 2.1-11.2 1.7-16-1.2-4.9-2.8-8.2-7.9-8.8-13.5h-20.1q-0.8 0-1.5-0.3-0.8-0.3-1.3-0.9-0.6-0.5-0.9-1.3-0.3-0.7-0.3-1.5v-36q0-0.8 0.3-1.5 0.3-0.8 0.9-1.3 0.5-0.6 1.3-0.9 0.7-0.3 1.5-0.3h48q0.8 0 1.5 0.3 0.8 0.3 1.3 0.9 0.6 0.5 0.9 1.3 0.3 0.7 0.3 1.5zm-15.6-6.6q2.5-0.3 4.9 0.2 2.4 0.4 4.7 1.5 2.2 1.1 4 2.8v-24.6q0-0.1 0-0.2 0-0.1 0-0.2-0.1-0.1-0.1-0.2 0 0 0-0.1l-22 18.7 3.7 3.2q2.3-0.9 4.8-1.1zm-36.4-22.1q0 0-0.1 0 0 0 0 0-0.1 0-0.1 0 0 0-0.1 0l22.9 19.5q0.3 0.2 0.6 0.3 0.4 0.2 0.8 0.2 0.4 0 0.8-0.2 0.3-0.1 0.6-0.3l22.9-19.5q-0.1 0-0.1 0 0 0-0.1 0 0 0 0 0-0.1 0-0.1 0zm20.1 20l-22-18.7q0 0.1 0 0.1 0 0.1-0.1 0.2 0 0.1 0 0.2 0 0.1 0 0.2v36q0 0.1 0 0.2 0 0.1 0 0.2 0.1 0 0.1 0.1 0 0.1 0 0.2zm-0.1 20q0-2.5 0.7-4.8 0.7-2.4 1.9-4.5 1.3-2.1 3.1-3.8 1.8-1.7 3.9-2.8l-3.3-2.8q-0.5 0.3-1.1 0.5-0.5 0.2-1.2 0.2-0.6 0-1.2-0.2-0.6-0.2-1.1-0.5l-21.9 18.7q0 0 0 0 0.1 0 0.1 0 0 0 0.1 0 0 0 0 0zm24.2 14.8c1.9-0.8 3.7-2 5.1-3.5 1.5-1.5 2.7-3.2 3.5-5.2 0.8-1.9 1.2-4 1.2-6.1 0-6.5-3.9-12.3-9.8-14.8-6-2.5-12.9-1.1-17.5 3.5-4.6 4.6-5.9 11.4-3.5 17.4 2.5 6 8.4 9.9 14.8 9.9 2.1 0 4.2-0.4 6.2-1.2z"/>
	<path id="Layer" class="s0" d="m74.3 51.5q-0.1-0.2-0.3-0.3-0.2-0.1-0.3-0.2-0.2 0-0.4 0-0.2 0-0.4 0.1l-2.2 1.3 0.4-1.7q0.1-0.4-0.1-0.8-0.2-0.3-0.6-0.5-0.4-0.1-0.7 0.1-0.4 0.2-0.5 0.6l-1 3.7-4.2 2.5v-4.9l2.7-2.7q0.3-0.3 0.3-0.7 0-0.4-0.3-0.7-0.3-0.3-0.7-0.3-0.4 0-0.7 0.3l-1.3 1.3v-2.6q0-0.4-0.3-0.7-0.3-0.3-0.7-0.3-0.4 0-0.7 0.3-0.3 0.3-0.3 0.7v2.6l-1.3-1.3q-0.3-0.3-0.7-0.3-0.4 0-0.7 0.3-0.3 0.3-0.3 0.7 0 0.4 0.3 0.7l2.7 2.7v4.9l-4.2-2.5-1-3.7q-0.1-0.4-0.5-0.6-0.3-0.2-0.7-0.1-0.4 0.1-0.6 0.5-0.2 0.4-0.1 0.8l0.5 1.7-2.3-1.3q-0.3-0.2-0.7-0.1-0.4 0.1-0.6 0.5-0.2 0.4-0.2 0.8 0.2 0.4 0.5 0.6l2.3 1.3-1.8 0.4q-0.4 0.1-0.6 0.4-0.2 0.4-0.1 0.7 0 0.4 0.3 0.6 0.3 0.3 0.6 0.3 0.1 0 0.1 0 0 0 0.1 0 0 0 0 0 0.1 0 0.1 0l3.7-1 4.2 2.4-4.2 2.4-3.7-1c-0.3 0-0.5 0-0.8 0.1-0.2 0.2-0.4 0.4-0.5 0.6 0 0.3 0 0.6 0.2 0.8 0.1 0.2 0.3 0.4 0.6 0.5l1.7 0.4-2.2 1.3q-0.3 0.2-0.5 0.6-0.1 0.4 0.1 0.8 0.2 0.4 0.6 0.5 0.4 0.1 0.8-0.1l2.2-1.3-0.4 1.7q-0.1 0.2-0.1 0.4 0.1 0.2 0.2 0.4 0.1 0.2 0.2 0.3 0.2 0.1 0.4 0.2 0 0 0 0 0.1 0 0.1 0 0 0 0.1 0 0 0 0 0 0.2 0 0.4-0.1 0.1 0 0.3-0.1 0.1-0.1 0.2-0.2 0.1-0.2 0.1-0.3l1-3.7 4.2-2.5v4.9l-2.7 2.7q-0.3 0.3-0.3 0.7 0 0.4 0.3 0.7 0.3 0.3 0.7 0.3 0.4 0 0.7-0.3l1.3-1.3v2.6q0 0.4 0.3 0.7 0.3 0.3 0.7 0.3 0.4 0 0.7-0.3 0.3-0.3 0.3-0.7v-2.6l1.3 1.3q0.3 0.3 0.7 0.3 0.4 0 0.7-0.3 0.3-0.3 0.3-0.7 0-0.4-0.3-0.7l-2.7-2.7v-4.9l4.2 2.5 1 3.7q0 0.1 0.1 0.3 0.1 0.1 0.2 0.2 0.2 0.1 0.3 0.1 0.2 0.1 0.4 0.1 0 0 0 0 0.1 0 0.1 0 0 0 0.1 0 0 0 0 0 0.2-0.1 0.4-0.2 0.1-0.1 0.2-0.3 0.1-0.2 0.1-0.4 0.1-0.2 0-0.4l-0.5-1.7 2.3 1.3q0 0 0.1 0 0.1 0.1 0.1 0.1 0.1 0 0.2 0 0 0 0.1 0 0.3 0 0.6-0.2 0.3-0.2 0.4-0.5 0-0.4-0.1-0.7-0.1-0.3-0.4-0.5l-2.3-1.3 1.8-0.4c0.3-0.1 0.5-0.3 0.6-0.5 0.2-0.2 0.2-0.5 0.1-0.8 0-0.2-0.2-0.4-0.4-0.6-0.3-0.1-0.5-0.1-0.8-0.1l-3.7 1-4.2-2.4 4.2-2.4 3.7 1q0 0 0.1 0 0 0 0 0 0.1 0 0.1 0 0 0 0.1 0 0.3 0 0.6-0.3 0.3-0.2 0.4-0.6 0-0.3-0.2-0.7-0.2-0.3-0.6-0.4l-1.7-0.4 2.2-1.3q0.2-0.1 0.3-0.3 0.1-0.1 0.2-0.3 0-0.2 0-0.4 0-0.2-0.1-0.4z"/>
	<text id="Created by Juicy Fish" style="transform: matrix(1,0,0,1,21,91)" >
		<tspan x="0" y="0" class="t1">Created by Juicy Fish
</tspan>
	</text>
	<text id="from the Noun Project" style="transform: matrix(1,0,0,1,21,96)" >
		<tspan x="0" y="0" class="t1">from the Noun Project
</tspan>
	</text>
</svg>