<svg version="1.2" xmlns="http://www.w3.org/2000/svg" viewBox="0 0 64 65" width="64" height="65">
	<title>noun-dns-1956465-svg</title>
	<style>
		tspan { white-space:pre } 
		.s0 { fill: #000000 } 
		.t1 { font-size: 5px;fill: #000000;font-family: "' Helvetica  Neue'" } 
	</style>
	<g id="Layer">
		<path id="Layer" class="s0" d="m31 17h-5c0.2 2.1 0.7 4 1.4 5.6 1.1-0.3 2.3-0.5 3.6-0.6 0 0 0-5 0-5z"/>
		<path id="Layer" class="s0" d="m31 10c-1.3-0.1-2.5-0.3-3.5-0.6-0.8 1.6-1.3 3.5-1.5 5.6h5z"/>
		<path id="Layer" class="s0" d="m24.2 26.3c1.4 1.1 3.1 1.9 4.9 2.4-0.9-1-1.8-2.2-2.7-3.6-1 0.4-1.8 0.9-2.2 1.2z"/>
		<path id="Layer" class="s0" d="m31 4.2c-0.8 0.8-1.7 2-2.6 3.4q1.2 0.3 2.6 0.4z"/>
		<path id="Layer" class="s0" d="m25.5 8.7c-1.4-0.6-2.4-1.3-2.9-1.7-2 2.1-3.3 4.9-3.6 8h5c0.2-2.4 0.8-4.5 1.5-6.3z"/>
		<path id="Layer" class="s0" d="m25.5 23.3c-0.8-1.8-1.3-3.9-1.5-6.3h-5c0.3 3.1 1.6 5.9 3.6 8 0.5-0.4 1.5-1.1 2.9-1.7z"/>
		<path id="Layer" class="s0" d="m29.1 3.4c-1.8 0.4-3.5 1.2-4.9 2.3 0.4 0.3 1.2 0.8 2.2 1.2 0.9-1.4 1.8-2.6 2.7-3.5z"/>
		<path id="Layer" class="s0" d="m31 24q-1.4 0.1-2.6 0.4c0.9 1.5 1.8 2.6 2.6 3.4z"/>
		<path id="Layer" fill-rule="evenodd" class="s0" d="m21.8 27h-18.8v-6h14.9c0.8 2.3 2.2 4.4 3.9 6zm-14.8-4h-2v2h2zm4 0h-2v2h2zm4 0h-2v2h2z"/>
		<path id="Layer" class="s0" d="m39.8 5.7c-1.4-1.1-3.1-1.9-4.9-2.3 0.9 0.9 1.8 2.1 2.7 3.5 1-0.4 1.8-0.9 2.2-1.2z"/>
		<path id="Layer" class="s0" d="m34.9 28.7c1.8-0.5 3.5-1.3 4.9-2.4-0.4-0.3-1.2-0.8-2.2-1.2-0.9 1.4-1.8 2.6-2.7 3.6z"/>
		<path id="Layer" class="s0" d="m33 24v3.8c0.8-0.8 1.7-2 2.6-3.4q-1.2-0.3-2.6-0.4z"/>
		<path id="Layer" class="s0" d="m40 15h4.9c-0.2-3.1-1.5-5.9-3.5-8-0.5 0.4-1.5 1.1-2.9 1.7 0.7 1.8 1.3 3.9 1.5 6.3z"/>
		<path id="Layer" class="s0" d="m44.9 17h-4.9c-0.2 2.4-0.8 4.5-1.5 6.3 1.4 0.6 2.4 1.3 2.9 1.7 2-2.1 3.3-4.9 3.5-8z"/>
		<path id="Layer" class="s0" d="m33 4.2v3.8q1.4-0.1 2.6-0.4c-0.9-1.4-1.8-2.6-2.6-3.4z"/>
		<path id="Layer" class="s0" d="m38 17h-5v5c1.3 0.1 2.5 0.3 3.5 0.6 0.8-1.6 1.3-3.5 1.5-5.6z"/>
		<path id="Layer" class="s0" d="m36.6 9.4c-1.1 0.3-2.3 0.5-3.6 0.6v5h5c-0.2-2.1-0.7-4-1.4-5.6z"/>
		<path id="Layer" class="s0" d="m7 49h2v8h-2z"/>
		<path id="Layer" class="s0" d="m51 55h6v2h-6z"/>
		<path id="Layer" class="s0" d="m25 45h32v4h-32z"/>
		<path id="Layer" class="s0" d="m37 55h8v2h-8z"/>
		<path id="Layer" class="s0" d="m46.1 21c-0.8 2.3-2.2 4.4-3.9 6h18.8v-6z"/>
		<path id="Layer" class="s0" d="m25 35h32v4h-32z"/>
		<path id="Layer" class="s0" d="m7 33h12v2h-12z"/>
		<path id="Layer" fill-rule="evenodd" class="s0" d="m39.5 29h21.5v32h-58v-32h21.5c2.2 1.3 4.8 2 7.5 2 2.7 0 5.3-0.7 7.5-2zm-28.5 18h-6v12h6zm10 0h-8v12h8zm0-8h-16v6h16zm0-8h-16v6h16zm12 22h-10v6h10zm14 0h-12v6h12zm12 0h-10v6h10zm0-10h-36v8h36zm0-10h-36v8h36z"/>
		<path id="Layer" class="s0" d="m25 55h6v2h-6z"/>
		<path id="Layer" class="s0" d="m15 49h4v8h-4z"/>
		<path id="Layer" class="s0" d="m7 41h12v2h-12z"/>
	</g>
	<text id="Created by Eucalyp" style="transform: matrix(1,0,0,1,0,79)" >
		<tspan x="0" y="0" class="t1">Created by Eucalyp
</tspan>
	</text>
	<text id="from the Noun Project" style="transform: matrix(1,0,0,1,0,84)" >
		<tspan x="0" y="0" class="t1">from the Noun Project
</tspan>
	</text>
</svg>