<svg version="1.2" xmlns="http://www.w3.org/2000/svg" viewBox="0 0 64 66" width="64" height="66">
	<title>noun-saas-2677446-svg</title>
	<style>
		tspan { white-space:pre } 
		.s0 { fill: #000000 } 
		.t1 { font-size: 5px;fill: #000000;font-family: "' Helvetica  Neue'" } 
	</style>
	<path id="Layer" fill-rule="evenodd" class="s0" d="m62 31c0 6.6-5.4 12-12 12h-5v5h5v2h-6c-0.6 0-1-0.4-1-1v-6h-2v9h4v2h-5c-0.6 0-1-0.4-1-1v-10h-2v4h-2v-4h-2v14c0 0.6-0.4 1-1 1h-3v-2h2v-13h-2v2h-2v-2h-2v6c0 0.6-0.4 1-1 1h-6v-2h5v-5h-8c-7.2 0-13-5.8-13-13 0-6.5 4.8-11.9 11.1-12.8q-0.1-0.9-0.1-1.7c0-7.4 6.1-13.5 13.5-13.5 7.3 0 13.2 5.8 13.5 13q0 0 0 0c2.9 0 5.3 2 5.9 4.7q2-0.7 4.1-0.7c6.6 0 12 5.4 12 12zm-2 0c0-5.5-4.5-10-10-10q-2.4 0-4.6 1.1c-0.3 0.2-0.7 0.2-1 0-0.3-0.2-0.4-0.6-0.4-0.9 0-0.1 0-0.2 0-0.2 0-2.5-2.3-4.4-4.8-3.9-0.3 0.1-0.6 0-0.9-0.2-0.2-0.2-0.3-0.5-0.3-0.8v-0.3q0-0.1 0-0.3c0-6.3-5.2-11.5-11.5-11.5-6.3 0-11.5 5.2-11.5 11.5q0 1.2 0.2 2.3c0.1 0.3 0 0.6-0.1 0.8-0.2 0.3-0.5 0.4-0.8 0.4-5.8 0.4-10.3 5.2-10.3 11 0 6.1 4.9 11 11 11h35c5.5 0 10-4.5 10-10z"/>
	<path id="Layer" class="s0" d="m29.3 7.5q-1.3-0.5-2.8-0.5v2q1.1 0 2.2 0.4z"/>
	<path id="Layer" class="s0" d="m24.3 9.4l-0.6-1.9c-3.4 1.2-5.7 4.4-5.7 8h2c0-2.7 1.7-5.2 4.3-6.1z"/>
	<path id="Layer" fill-rule="evenodd" class="s0" d="m36.9 26.6c0.1 0.5 0.1 1 0.1 1.4 0 0.4 0 0.9-0.1 1.4 0 0.4-0.3 0.7-0.6 0.8l-1.8 0.7q-0.2 0.6-0.4 1l0.7 1.8c0.2 0.4 0.1 0.7-0.1 1q-0.9 1.1-2 2c-0.3 0.2-0.6 0.3-1 0.1l-1.8-0.7q-0.4 0.2-1 0.4l-0.7 1.8c-0.1 0.3-0.4 0.6-0.8 0.6-0.5 0.1-1 0.1-1.4 0.1-0.4 0-0.9 0-1.4-0.1-0.3 0-0.7-0.3-0.8-0.6l-0.7-1.8q-0.6-0.2-1-0.4l-1.8 0.7c-0.4 0.2-0.7 0.1-1-0.1q-1.1-0.9-2-2c-0.2-0.3-0.3-0.6-0.1-1l0.7-1.8q-0.2-0.4-0.4-1l-1.8-0.7c-0.3-0.1-0.6-0.5-0.6-0.8-0.1-0.5-0.1-1-0.1-1.4 0-0.4 0-0.9 0.1-1.4 0-0.4 0.3-0.7 0.6-0.8l1.8-0.7q0.2-0.6 0.4-1l-0.7-1.8c-0.2-0.4-0.1-0.7 0.1-1q0.9-1.1 2-2c0.3-0.2 0.6-0.3 1-0.1l1.8 0.7q0.4-0.2 1-0.4l0.7-1.8c0.1-0.3 0.5-0.6 0.8-0.6 1.1-0.1 1.8-0.1 2.8 0 0.4 0 0.7 0.3 0.8 0.6l0.7 1.8q0.6 0.2 1 0.4l1.8-0.7c0.4-0.2 0.7-0.1 1 0.1q1.1 0.9 2 2c0.2 0.3 0.3 0.6 0.1 1l-0.7 1.8q0.2 0.4 0.4 1l1.8 0.7c0.3 0.1 0.6 0.4 0.6 0.8zm-1.9 1.4q0-0.3 0-0.6l-1.7-0.7c-0.3-0.1-0.5-0.3-0.6-0.6q-0.2-0.8-0.6-1.5c-0.1-0.3-0.2-0.6 0-0.9l0.6-1.6q-0.3-0.5-0.8-0.8l-1.6 0.6c-0.3 0.2-0.6 0.1-0.9 0q-0.7-0.4-1.5-0.6c-0.3-0.1-0.5-0.3-0.6-0.6l-0.7-1.7c-0.4 0-0.8 0-1.2 0l-0.7 1.7c-0.1 0.3-0.3 0.5-0.6 0.6q-0.8 0.2-1.5 0.6c-0.3 0.1-0.6 0.2-0.9 0l-1.6-0.6q-0.5 0.3-0.8 0.8l0.6 1.6c0.2 0.3 0.1 0.6 0 0.9q-0.4 0.7-0.6 1.5c-0.1 0.3-0.3 0.5-0.6 0.6l-1.7 0.7q0 0.3 0 0.6 0 0.3 0 0.6l1.7 0.7c0.3 0.1 0.5 0.3 0.6 0.6q0.2 0.8 0.6 1.5c0.1 0.3 0.2 0.6 0 0.9l-0.6 1.6q0.3 0.5 0.8 0.8l1.6-0.6c0.3-0.2 0.6-0.1 0.9 0q0.7 0.4 1.5 0.6c0.3 0.1 0.5 0.3 0.6 0.6l0.7 1.7c0.4 0 0.8 0 1.2 0l0.7-1.7c0.1-0.3 0.3-0.5 0.6-0.6q0.8-0.2 1.5-0.6c0.3-0.1 0.6-0.2 0.9 0l1.6 0.6q0.5-0.3 0.8-0.8l-0.6-1.6c-0.2-0.3-0.1-0.6 0-0.9q0.4-0.7 0.6-1.5c0.1-0.3 0.3-0.5 0.6-0.6l1.7-0.7q0-0.3 0-0.6z"/>
	<path id="Layer" fill-rule="evenodd" class="s0" d="m49.9 32h1.1v2h-1.1q-0.1 0.3-0.2 0.6l1 0.5-1 1.8-1-0.6q-0.2 0.2-0.4 0.4l0.6 1-1.8 1-0.5-1q-0.3 0.1-0.6 0.2v1.1h-2v-1.1q-0.3-0.1-0.6-0.2l-0.5 1-1.8-1 0.6-1q-0.2-0.2-0.4-0.4l-1 0.6-1-1.8 1-0.5q-0.1-0.3-0.2-0.6h-1.1v-2h1.1q0.1-0.3 0.2-0.6l-1-0.5 1-1.8 1 0.6q0.2-0.2 0.4-0.4l-0.6-1 1.8-1 0.5 1q0.3-0.1 0.6-0.2v-1.1h2v1.1q0.3 0.1 0.6 0.2l0.5-1 1.8 1-0.6 1q0.2 0.2 0.4 0.4l1-0.6 1 1.8-1 0.5q0.1 0.3 0.2 0.6zm-4.9-2c-1.7 0-3 1.3-3 3 0 1.7 1.3 3 3 3 1.7 0 3-1.3 3-3 0-1.7-1.3-3-3-3z"/>
	<path id="Layer" fill-rule="evenodd" class="s0" d="m31 28c0 2.8-2.2 5-5 5-2.8 0-5-2.2-5-5 0-2.8 2.2-5 5-5 2.8 0 5 2.2 5 5zm-2 0c0-1.7-1.3-3-3-3-1.7 0-3 1.3-3 3 0 1.7 1.3 3 3 3 1.7 0 3-1.3 3-3z"/>
	<path id="Layer" class="s0" d="m13 48h3v2h-3z"/>
	<path id="Layer" class="s0" d="m29 47h-2v5h-4v2h5c0.6 0 1-0.4 1-1z"/>
	<path id="Layer" class="s0" d="m18 52h3v2h-3z"/>
	<path id="Layer" class="s0" d="m13 52h3v2h-3z"/>
	<path id="Layer" class="s0" d="m19 56h8v2h-8z"/>
	<path id="Layer" class="s0" d="m15 60h2v2h-2z"/>
	<path id="Layer" class="s0" d="m19 60h2v2h-2z"/>
	<path id="Layer" class="s0" d="m23 60h2v2h-2z"/>
	<path id="Layer" class="s0" d="m35 60h-8v2h9c0.6 0 1-0.4 1-1v-5h-2z"/>
	<path id="Layer" class="s0" d="m35 49h2v5h-2z"/>
	<path id="Layer" fill-rule="evenodd" class="s0" d="m7.8 48h3.2v2h-3.2c-0.4 1.2-1.5 2-2.8 2-1.7 0-3-1.3-3-3 0-1.7 1.3-3 3-3 1.3 0 2.4 0.8 2.8 2zm-1.8 1c0-0.6-0.4-1-1-1-0.6 0-1 0.4-1 1 0 0.6 0.4 1 1 1 0.6 0 1-0.4 1-1z"/>
	<path id="Layer" class="s0" d="m47 52h3v2h-3z"/>
	<path id="Layer" class="s0" d="m52 52h3v2h-3z"/>
	<path id="Layer" fill-rule="evenodd" class="s0" d="m62 49c0 1.7-1.3 3-3 3-1.3 0-2.4-0.8-2.8-2h-4.2v-2h4.2c0.4-1.2 1.5-2 2.8-2 1.7 0 3 1.3 3 3zm-2 0c0-0.6-0.4-1-1-1-0.6 0-1 0.4-1 1 0 0.6 0.4 1 1 1 0.6 0 1-0.4 1-1z"/>
	<path id="Layer" fill-rule="evenodd" class="s0" d="m10.8 56h6.2v2h-6.2c-0.4 1.2-1.5 2-2.8 2-1.7 0-3-1.3-3-3 0-1.7 1.3-3 3-3 1.3 0 2.4 0.8 2.8 2zm-1.8 1c0-0.6-0.4-1-1-1-0.6 0-1 0.4-1 1 0 0.6 0.4 1 1 1 0.6 0 1-0.4 1-1z"/>
	<text id="Created by Becris" style="transform: matrix(1,0,0,1,0,79)" >
		<tspan x="0" y="0" class="t1">Created by Becris
</tspan>
	</text>
	<text id="from the Noun Project" style="transform: matrix(1,0,0,1,0,84)" >
		<tspan x="0" y="0" class="t1">from the Noun Project
</tspan>
	</text>
</svg>