<svg version="1.2" xmlns="http://www.w3.org/2000/svg" viewBox="0 0 23 24" width="23" height="24">
	<title>noun-web-scraper-6635297-svg</title>
	<style>
		tspan { white-space:pre } 
		.s0 { fill: #000000 } 
		.t1 { font-size: 5px;fill: #000000;font-family: "' Helvetica  Neue'" } 
	</style>
	<path id="Layer" fill-rule="evenodd" class="s0" d="m18.8 18.8c0.1 0.2 0.1 0.5-0.1 0.7l-0.7 0.5c-0.2 0.2-0.5 0.2-0.7 0l-2.7-3.4c-0.3-0.1-0.6-0.3-1.1-0.6-1-0.7-2.3-1.9-3-2.9q-0.1-0.1-0.1-0.3 0-0.1 0.1-0.2l2.7-2.2q0.1 0 0.2 0 0.2 0.1 0.3 0.2c0.8 0.9 1.7 2.4 2.1 3.6 0.2 0.5 0.3 0.9 0.3 1.2zm-1.3 1.1c0.1 0.1 0.3 0.1 0.4 0l0.7-0.5c0.1-0.1 0.2-0.3 0.1-0.5l-2.7-3.3-1.2 0.9zm-3.3-3.3h-10.8c-0.4 0-0.7-0.4-0.7-0.8v-10.9c0-0.4 0.3-0.7 0.7-0.7h15.5c0.4 0 0.7 0.3 0.7 0.7v10.9c0 0.4-0.3 0.8-0.7 0.8h-1.7l-0.2-0.3h1.9c0.3 0 0.5-0.2 0.5-0.5v-10.3h-16.5v10.3c0 0.3 0.2 0.5 0.5 0.5h10.4q0.2 0.2 0.4 0.3zm1.6-2.3c-0.5-1.1-1.4-2.6-2.1-3.5q-0.1-0.1-0.2-0.1-0.1-0.1-0.1 0l-2.7 2.1q-0.1 0-0.1 0.1 0.1 0.1 0.1 0.2c0.7 0.9 2 2.2 3 2.9 0.4 0.2 0.8 0.4 1 0.5l1.3-1c0-0.3-0.1-0.7-0.2-1.2zm-3.1 1.2h-9.3q-0.1 0-0.1-0.1 0-0.1 0.1-0.1h9.1q0.1 0.1 0.2 0.2zm6.2-0.2q0.1 0 0.1 0.1 0 0.1-0.1 0.1h-2.5l-0.1-0.1q0 0 0-0.1zm-6.8-0.3h-8.6q-0.1 0-0.1-0.1 0-0.1 0.1-0.2h8.4q0.1 0.2 0.2 0.3zm6.8-0.3q0.1 0.1 0.1 0.2 0 0.1-0.1 0.1h-2.6q-0.1-0.1-0.1-0.3zm-7.4-0.3h-8q-0.1 0-0.1-0.1 0-0.1 0.1-0.1h7.8q0.1 0.1 0.2 0.2zm7.4-0.2q0.1 0 0.1 0.1 0 0.1-0.1 0.1h-2.8q0-0.1 0-0.2-0.1 0-0.1 0zm-7.9-0.4h-7.5q-0.1 0-0.1-0.1 0-0.1 0.1-0.1h7.4q0 0.1 0.1 0.2zm7.9-0.2q0.1 0 0.1 0.1 0 0.1-0.1 0.1h-3q0-0.1-0.1-0.2zm-8.4-0.4h-7q-0.1 0-0.1-0.1 0-0.1 0.1-0.1h6.9q0.1 0.1 0.1 0.2zm8.4-0.2q0.1 0 0.1 0.1 0 0.1-0.1 0.1h-3.3q-0.1-0.1-0.1-0.2zm-8.4-0.4q0 0 0 0.1h-7q-0.1-0.1-0.1-0.2 0 0 0.1-0.1h7.2zm8.4-0.1q0.1 0 0.1 0.1 0 0.1-0.1 0.1h-3.6q-0.1-0.1-0.2-0.2zm-7.7-0.4h-7.7q-0.1 0-0.1-0.1 0-0.1 0.1-0.1h8zm7.7-0.2q0.1 0 0.1 0.1 0 0.1-0.1 0.1h-3.9q-0.1-0.1-0.2-0.2zm-7-0.4h-8.4q-0.1 0-0.1-0.1 0-0.1 0.1-0.1h8.7zm7-0.2q0.1 0 0.1 0.1 0 0.1-0.1 0.1h-4.3q-0.1-0.1-0.2-0.2zm-6.2-0.3h-9.2q-0.1-0.1-0.1-0.2 0-0.1 0.1-0.1h9.4zm6.3-0.2q0.1 0 0.1 0.1 0 0.1-0.1 0.1h-4.7q-0.1-0.1-0.2-0.2zm-15.5-0.4q0-0.1 0.1-0.2h15.4q0.1 0.1 0.1 0.2 0 0.1-0.1 0.1h-15.4q-0.1 0-0.1-0.1zm0-0.6q0-0.1 0.1-0.1h10.2q0 0 0.1 0.1-0.1 0.1-0.1 0.1h-10.2q-0.1 0-0.1-0.1zm15.5-0.2c0 0.1-0.1 0.3-0.3 0.3h-3.9c-0.2 0-0.3-0.2-0.3-0.3v-2.5c0-0.2 0.1-0.3 0.3-0.3h3.9c0.2 0 0.3 0.1 0.3 0.3zm-15.5-0.4q0-0.1 0.1-0.1h10.2q0 0 0.1 0.1-0.1 0.1-0.1 0.1h-10.2q-0.1 0-0.1-0.1zm0-0.5q0-0.1 0.1-0.1h10.2q0 0 0.1 0.1-0.1 0.1-0.1 0.1h-10.2q-0.1 0-0.1-0.1zm0-0.6q0-0.1 0.1-0.1h10.2q0 0 0.1 0.1-0.1 0.1-0.1 0.1h-10.2q-0.1 0-0.1-0.1zm0-0.6q0-0.1 0.1-0.1h10.2q0 0 0.1 0.1-0.1 0.1-0.1 0.1h-10.2q-0.1 0-0.1-0.1zm0-0.6q0-0.1 0.1-0.1h10.2q0 0 0.1 0.1-0.1 0.1-0.1 0.1h-10.2q-0.1 0-0.1-0.1zm14.9-1.4v-1h-14.9c-0.2 0-0.5 0.3-0.5 0.5v0.5zm0.3-0.2v0.1q0.1 0 0.1 0l0.2-0.3c0.1 0.1 0.3 0.1 0.3 0 0.1-0.1 0.1-0.3 0-0.4-0.1-0.1-0.2-0.1-0.3 0-0.1 0.1-0.1 0.3-0.1 0.4l-0.2 0.2q0 0 0 0z"/>
	<text id="Created by anananas" style="transform: matrix(1,0,0,1,2,36)" >
		<tspan x="0" y="0" class="t1">Created by anananas
</tspan>
	</text>
	<text id="from the Noun Project" style="transform: matrix(1,0,0,1,2,41)" >
		<tspan x="0" y="0" class="t1">from the Noun Project
</tspan>
	</text>
</svg>